<svg width="876" height="18" viewBox="0 0 876 18" fill="none" xmlns="http://www.w3.org/2000/svg">
<path d="M0.666795 12.037C0.68725 14.9825 3.09159 17.3537 6.03704 17.3332C8.98248 17.3128 11.3537 14.9084 11.3332 11.963C11.3128 9.01752 8.90841 6.64634 5.96296 6.6668C3.01752 6.68725 0.646341 9.09159 0.666795 12.037ZM864.667 6.03704C864.687 8.98248 867.092 11.3537 870.037 11.3332C872.982 11.3127 875.354 8.90841 875.333 5.96296C875.313 3.01752 872.908 0.64634 869.963 0.666795C867.018 0.687249 864.646 3.09159 864.667 6.03704ZM6.00694 13L870.007 6.99998L869.993 5.00002L5.99306 11L6.00694 13Z" fill="white"/>
</svg>
